<svg width="20" height="13" viewBox="0 0 20 13" fill="none" xmlns="http://www.w3.org/2000/svg">
<path fill-rule="evenodd" clip-rule="evenodd" d="M19.8652 1.53301C19.8652 0.899963 19.3876 0.38678 18.7985 0.38678H17.7318C17.1427 0.38678 16.6652 0.899963 16.6652 1.53301V11.467C16.6652 12.1 17.1427 12.6132 17.7318 12.6132H18.7985C19.3876 12.6132 19.8652 12.1 19.8652 11.467V1.53301ZM12.431 2.83206H13.4977C14.0868 2.83206 14.5644 3.35756 14.5644 4.0058V11.4395C14.5644 12.0877 14.0868 12.6132 13.4977 12.6132H12.431C11.8419 12.6132 11.3644 12.0877 11.3644 11.4395V4.0058C11.3644 3.35756 11.8419 2.83206 12.431 2.83206ZM8.09928 5.48111H7.03261C6.44351 5.48111 5.96594 6.0133 5.96594 6.66979V11.4245C5.96594 12.081 6.44351 12.6132 7.03261 12.6132H8.09928C8.68838 12.6132 9.16594 12.081 9.16594 11.4245V6.66979C9.16594 6.0133 8.68838 5.48111 8.09928 5.48111ZM2.79849 7.9264H1.73183C1.14272 7.9264 0.665161 8.45099 0.665161 9.0981V11.4415C0.665161 12.0886 1.14272 12.6132 1.73183 12.6132H2.79849C3.3876 12.6132 3.86516 12.0886 3.86516 11.4415V9.0981C3.86516 8.45099 3.3876 7.9264 2.79849 7.9264Z" fill="white"/>
</svg>
