<svg width="100" height="98" viewBox="0 0 100 98" fill="none" xmlns="http://www.w3.org/2000/svg">
<path d="M49.9984 0.0410156C22.3887 0.0410156 0 22.5136 0 50.2426C0 72.4184 14.3242 91.2346 34.2 97.8717C36.6984 98.3346 37.6097 96.7846 37.6097 95.4523C37.6097 94.262 37.5661 91.1055 37.5419 86.9152C23.6306 89.9523 20.6968 80.1862 20.6968 80.1862C18.4258 74.3862 15.1484 72.8459 15.1484 72.8459C10.6065 69.7297 15.4903 69.7894 15.4903 69.7894C20.5065 70.1426 23.1468 74.9652 23.1468 74.9652C27.6113 82.6362 34.8532 80.4184 37.7016 79.133C38.1516 75.891 39.4468 73.6765 40.8742 72.4233C29.7742 71.1539 18.1032 66.8507 18.1032 47.6168C18.1032 42.1378 20.05 37.6555 23.2484 34.1426C22.7306 32.8733 21.0161 27.7717 23.7355 20.862C23.7355 20.862 27.9355 19.5136 37.4855 26.0071C41.4742 24.8942 45.7516 24.3378 50.0048 24.3152C54.2484 24.3378 58.529 24.8926 62.5242 26.0071C72.0661 19.5136 76.2597 20.862 76.2597 20.862C78.9855 27.7717 77.271 32.8733 76.7548 34.1426C79.9613 37.6555 81.8968 42.1362 81.8968 47.6168C81.8968 66.8991 70.2065 71.141 59.0677 72.3862C60.8629 73.9362 62.4613 76.9975 62.4613 81.683C62.4613 88.3959 62.4016 93.8055 62.4016 95.4523C62.4016 96.7975 63.3032 98.3604 65.8387 97.8652C85.6887 91.2152 100 72.412 100 50.2426C100 22.5136 77.6113 0.0410156 49.9984 0.0410156Z" fill="#3E77BF"/>
</svg>
