<svg width="546" height="96" xmlns="http://www.w3.org/2000/svg" xmlns:xlink="http://www.w3.org/1999/xlink" viewBox="0 0 546 96" fill="none"><g style="mix-blend-mode:plus-lighter"><rect y="19" width="546" height="52" rx="26" fill="#787880" fill-opacity=".32"/><a xlink:href="https://docs.google.com/document/d/1avIzGQb-knxQHZHECW6TIaf8bfXfIcNd/edit?usp=sharing&amp;ouid=102291931407629129008&amp;rtpof=true&amp;sd=true" target="_blank"><path d="M12.91 43.446q-.001-1.37.514-2.565a6.7 6.7 0 0 1 3.536-3.544 6.5 6.5 0 0 1 2.573-.515q1.37 0 2.565.515a6.68 6.68 0 0 1 3.545 3.544q.514 1.195.514 2.565 0 1.137-.365 2.159a6.6 6.6 0 0 1-.996 1.85l4.059 4.085q.132.132.2.307.074.174.074.373 0 .274-.125.498a.84.84 0 0 1-.332.349.93.93 0 0 1-.498.133 1 1 0 0 1-.381-.075 1 1 0 0 1-.324-.208l-4.084-4.092a6.9 6.9 0 0 1-1.793.913 6.4 6.4 0 0 1-2.059.332q-1.369 0-2.573-.514a6.7 6.7 0 0 1-2.108-1.428 6.7 6.7 0 0 1-1.428-2.108 6.5 6.5 0 0 1-.515-2.574m1.419 0q0 1.08.398 2.026a5.3 5.3 0 0 0 2.78 2.772q.948.407 2.026.407 1.08 0 2.017-.407a5.3 5.3 0 0 0 2.78-2.772q.408-.946.408-2.026t-.407-2.017a5.3 5.3 0 0 0-1.12-1.66 5.1 5.1 0 0 0-1.66-1.12 5 5 0 0 0-2.018-.407q-1.08 0-2.025.406a5.26 5.26 0 0 0-2.78 2.78 5.1 5.1 0 0 0-.4 2.018" fill="#999" style="mix-blend-mode:plus-darker"/></a><path style="mix-blend-mode:plus-darker" d="M46.6 51V38.317h1.538l7.312 10.495-1.09-.616h.8v-9.879h1.565V51h-1.538l-7.313-10.459 1.09.615h-.8V51zm15.634.167a3.7 3.7 0 0 1-1.617-.343 2.7 2.7 0 0 1-1.125-.975q-.413-.633-.413-1.494v-.018q0-.835.404-1.433.405-.606 1.17-.949.773-.342 1.872-.404l3.48-.211v1.221l-3.296.212q-1.073.06-1.573.448-.492.387-.492 1.08v.018q0 .72.536 1.125.545.396 1.37.396.783 0 1.39-.308.606-.316.949-.852.351-.537.351-1.213V44.53q0-.879-.536-1.336-.527-.465-1.59-.465-.853 0-1.398.307-.545.3-.73.861l-.008.027h-1.52l.008-.053a2.53 2.53 0 0 1 .606-1.31 3.3 3.3 0 0 1 1.292-.87q.791-.316 1.802-.316 1.16 0 1.96.378t1.222 1.081.422 1.688V51h-1.53v-1.398h-.14q-.3.502-.73.853-.421.352-.958.536-.536.176-1.178.176m10.564-.088q-1.45 0-2.11-.589-.65-.597-.65-1.942v-5.74h-1.485v-1.265h1.485v-2.452h1.582v2.452h2.057v1.266H71.62v5.37q0 .825.317 1.186.316.36 1.046.36.202 0 .342-.008.15-.009.352-.027v1.301q-.21.035-.43.062a4 4 0 0 1-.449.026M75.891 51v-9.457h1.53V51zm.773-11.276q-.43 0-.738-.308a1.03 1.03 0 0 1-.308-.738q0-.44.308-.747.307-.308.738-.308.44 0 .747.308.308.307.308.747 0 .422-.308.738a1.02 1.02 0 0 1-.747.308m10.124 14.44v-4.588h-.14q-.255.501-.695.861a3.3 3.3 0 0 1-1.02.545q-.57.185-1.247.185-1.195 0-2.092-.607-.896-.606-1.389-1.705-.492-1.098-.492-2.575v-.017q0-1.485.492-2.575.492-1.099 1.39-1.706.895-.606 2.1-.606.641 0 1.204.21.563.213 1.02.607.465.387.764.932h.105v-1.582h1.53v12.621zm-2.742-4.35q.853 0 1.468-.431.624-.44.967-1.23.343-.8.343-1.873v-.017q0-1.09-.343-1.881t-.967-1.222q-.615-.43-1.477-.43-.852 0-1.476.43-.625.422-.958 1.213-.325.782-.325 1.89v.017q0 1.09.334 1.89.334.79.949 1.222.624.42 1.485.421m10.15 1.353q-1.072 0-1.801-.404a2.62 2.62 0 0 1-1.099-1.196q-.36-.79-.36-1.898v-6.126h1.53V47.3q0 1.265.491 1.89.502.624 1.635.624.615 0 1.09-.185.483-.185.809-.527.325-.352.483-.844.167-.501.167-1.116v-5.599h1.53V51h-1.53v-1.406h-.132q-.237.492-.633.852a2.7 2.7 0 0 1-.94.536 3.9 3.9 0 0 1-1.24.185m11.065 0q-1.353 0-2.32-.598-.968-.597-1.494-1.687-.519-1.09-.519-2.575v-.01q0-1.467.519-2.574.527-1.108 1.476-1.723.958-.624 2.242-.624 1.291 0 2.214.598.932.588 1.424 1.66.501 1.065.501 2.48v.597h-7.585v-1.222h6.803l-.756 1.117v-.607q0-1.116-.334-1.837t-.923-1.072a2.6 2.6 0 0 0-1.353-.352q-.765 0-1.363.37-.597.368-.949 1.098-.351.73-.351 1.793v.606q0 1.012.342 1.723.343.712.967 1.099.633.378 1.494.378.642 0 1.117-.176.474-.176.782-.448.307-.273.43-.563l.036-.079h1.529l-.018.07a2.9 2.9 0 0 1-.439.95 3.4 3.4 0 0 1-.809.817q-.492.36-1.16.58a5 5 0 0 1-1.503.211M116.694 51V38.317h1.582V51zm9.21.167a3.6 3.6 0 0 1-1.222-.202 3.3 3.3 0 0 1-1.002-.571 3.2 3.2 0 0 1-.729-.906h-.132V51h-1.529V37.79h1.529v5.247h.132q.264-.51.703-.879a3.4 3.4 0 0 1 1.02-.571q.579-.21 1.23-.211 1.204 0 2.092.606.896.598 1.38 1.697.492 1.098.492 2.584v.017q0 1.477-.492 2.575-.484 1.099-1.38 1.706-.888.606-2.092.606m-.352-1.354q.871 0 1.486-.421.615-.432.94-1.222t.325-1.89v-.017q0-1.108-.325-1.89-.325-.791-.94-1.213-.615-.43-1.486-.43-.852 0-1.476.43-.624.431-.958 1.222-.334.782-.334 1.88v.018q0 1.081.334 1.881.334.791.958 1.222t1.476.43M132.126 51v-9.457h1.529v1.406h.132q.272-.746.914-1.16.65-.413 1.6-.413.22 0 .43.026.22.018.325.035v1.486a4 4 0 0 0-.457-.062 4 4 0 0 0-.474-.026q-.721 0-1.283.29-.555.282-.871.8-.315.519-.316 1.213V51zm9.324.167a3.7 3.7 0 0 1-1.617-.343 2.7 2.7 0 0 1-1.125-.975q-.413-.633-.413-1.494v-.018q0-.835.404-1.433.404-.606 1.169-.949.774-.342 1.872-.404l3.481-.211v1.221l-3.296.212q-1.073.06-1.574.448-.492.387-.492 1.08v.018q0 .72.536 1.125.546.396 1.371.396.783 0 1.389-.308.607-.316.949-.852.352-.537.352-1.213V44.53q0-.879-.536-1.336-.528-.465-1.591-.465-.852 0-1.397.307-.546.3-.73.861l-.009.027h-1.52l.009-.053q.114-.746.606-1.31a3.3 3.3 0 0 1 1.292-.87q.79-.316 1.802-.316 1.16 0 1.96.378t1.221 1.081q.422.703.422 1.688V51h-1.529v-1.398h-.141a3.2 3.2 0 0 1-.729.853 3 3 0 0 1-.958.536q-.536.176-1.178.176m7.215-.167v-9.457h1.529v1.406h.132q.272-.746.914-1.16.65-.413 1.6-.413.22 0 .43.026.22.018.326.035v1.486a4 4 0 0 0-.457-.062 4 4 0 0 0-.475-.026q-.72 0-1.283.29a2.13 2.13 0 0 0-.87.8q-.317.519-.317 1.213V51zm10.835 0 4.676-12.683h1.213v2.04h-.492L161.161 51zm2.118-3.63.492-1.345h5.731l.492 1.345zm7.137 3.63-3.727-10.644v-2.039h.712L170.416 51zm3.664 0V37.79h1.529V51zm6.951.167a3.7 3.7 0 0 1-1.617-.343 2.73 2.73 0 0 1-1.125-.975q-.413-.633-.413-1.494v-.018q0-.835.404-1.433.405-.606 1.169-.949.774-.342 1.872-.404l3.481-.211v1.221l-3.296.212q-1.072.06-1.573.448-.492.387-.492 1.08v.018q0 .72.536 1.125.544.396 1.371.396.782 0 1.388-.308.607-.316.95-.852.351-.537.351-1.213V44.53q0-.879-.536-1.336-.527-.465-1.591-.465-.852 0-1.397.307-.545.3-.73.861l-.008.027h-1.521l.009-.053q.114-.746.606-1.31a3.3 3.3 0 0 1 1.292-.87q.791-.316 1.802-.316 1.16 0 1.96.378t1.222 1.081.422 1.688V51h-1.53v-1.398h-.14q-.3.502-.73.853-.421.352-.958.536a3.8 3.8 0 0 1-1.178.176m7.215-.167v-9.457h1.53v1.433h.131q.317-.756.967-1.178.66-.422 1.591-.422.642 0 1.151.21.51.212.879.59.37.369.589.861h.132a2.8 2.8 0 0 1 .686-.87q.43-.378.993-.58.571-.21 1.221-.211.968 0 1.635.36.677.36 1.029 1.055.351.686.351 1.67V51h-1.529v-6.187q0-.695-.22-1.152a1.42 1.42 0 0 0-.65-.694q-.44-.237-1.108-.237-.659 0-1.151.298a2.05 2.05 0 0 0-.756.791 2.2 2.2 0 0 0-.272 1.099V51h-1.53v-6.416q0-.562-.246-.976a1.6 1.6 0 0 0-.685-.65q-.44-.228-1.037-.228-.616 0-1.108.325a2.25 2.25 0 0 0-.782.87 2.6 2.6 0 0 0-.281 1.213V51z" fill="#CCC"/><path d="M520.523 44.31v-1.686q0-.257.183-.44a.6.6 0 0 1 .44-.182.6.6 0 0 1 .448.183.6.6 0 0 1 .183.44v1.635q0 1.41.581 2.473a4.1 4.1 0 0 0 1.635 1.652q1.055.582 2.474.581 1.42 0 2.465-.58a4.1 4.1 0 0 0 1.635-1.653q.582-1.062.581-2.473v-1.636q0-.257.183-.44a.6.6 0 0 1 .448-.182.6.6 0 0 1 .44.183.6.6 0 0 1 .183.44v1.685q0 1.626-.673 2.888a5.3 5.3 0 0 1-1.859 2.026q-1.196.755-2.781.888v1.934h3.08a.6.6 0 0 1 .448.182.6.6 0 0 1 .183.449.6.6 0 0 1-.183.44.6.6 0 0 1-.448.182h-7.413a.6.6 0 0 1-.448-.182.6.6 0 0 1-.183-.44q0-.266.183-.449a.6.6 0 0 1 .448-.182h3.08v-1.934q-1.586-.133-2.781-.888a5.34 5.34 0 0 1-1.867-2.026q-.665-1.261-.665-2.888m5.944 2.872q-.83 0-1.453-.382a2.63 2.63 0 0 1-.971-1.054q-.349-.68-.349-1.57v-5.553q0-.888.349-1.56.348-.681.971-1.062.622-.382 1.453-.382.822 0 1.444.382.631.381.971 1.062.35.672.349 1.56v5.554q0 .888-.349 1.569-.34.672-.971 1.054-.622.381-1.444.382" fill="#999" style="mix-blend-mode:plus-darker"/></g><rect x="44" y="30" width="167" height="30" rx="1" fill="#08F" style="mix-blend-mode:multiply" opacity=".25"/><rect x="209" y="30" width="2" height="34" rx="1" fill="#08F"/><g filter="url(#a)"><circle cx="210" cy="65" r="8" fill="#08F"/></g><rect x="44" y="26" width="2" height="34" rx="1" fill="#08F"/><g filter="url(#b)"><circle cx="45" cy="25" r="8" fill="#08F"/></g><rect opacity=".75" x="491" y="43.5" width="3" height="7" rx="1.5" transform="rotate(90 491 43.5)" fill="#999"/><rect opacity=".87" x="486.16" y="38.282" width="3" height="7" rx="1.5" transform="rotate(-45 486.16 38.282)" fill="#999"/><rect opacity=".51" x="493.5" y="49" width="3" height="7" rx="1.5" fill="#999"/><rect opacity=".63" x="491.109" y="46.768" width="3" height="7" rx="1.5" transform="rotate(45 491.109 46.768)" fill="#999"/><rect opacity=".39" x="496.77" y="48.889" width="3" height="7" rx="1.5" transform="rotate(-45 496.77 48.889)" fill="#999"/><rect opacity=".27" x="506" y="43.5" width="3" height="7" rx="1.5" transform="rotate(90 506 43.5)" fill="#999"/><rect opacity=".15" x="501.719" y="36.161" width="3" height="7" rx="1.5" transform="rotate(45 501.719 36.161)" fill="#999"/><rect x="493.5" y="34" width="3" height="7" rx="1.5" fill="#999"/><defs><filter id="a" x="182" y="40" width="56" height="56" filterUnits="userSpaceOnUse" color-interpolation-filters="sRGB"><feFlood flood-opacity="0" result="BackgroundImageFix"/><feColorMatrix in="SourceAlpha" values="0 0 0 0 0 0 0 0 0 0 0 0 0 0 0 0 0 0 127 0" result="hardAlpha"/><feMorphology radius="6" operator="dilate" in="SourceAlpha" result="effect1_dropShadow_31_196"/><feOffset dy="3"/><feGaussianBlur stdDeviation="7"/><feComposite in2="hardAlpha" operator="out"/><feColorMatrix values="0 0 0 0 0 0 0 0 0 0 0 0 0 0 0 0 0 0 0.12 0"/><feBlend in2="BackgroundImageFix" result="effect1_dropShadow_31_196"/><feBlend in="SourceGraphic" in2="effect1_dropShadow_31_196" result="shape"/></filter><filter id="b" x="17" y="0" width="56" height="56" filterUnits="userSpaceOnUse" color-interpolation-filters="sRGB"><feFlood flood-opacity="0" result="BackgroundImageFix"/><feColorMatrix in="SourceAlpha" values="0 0 0 0 0 0 0 0 0 0 0 0 0 0 0 0 0 0 127 0" result="hardAlpha"/><feMorphology radius="6" operator="dilate" in="SourceAlpha" result="effect1_dropShadow_31_196"/><feOffset dy="3"/><feGaussianBlur stdDeviation="7"/><feComposite in2="hardAlpha" operator="out"/><feColorMatrix values="0 0 0 0 0 0 0 0 0 0 0 0 0 0 0 0 0 0 0.12 0"/><feBlend in2="BackgroundImageFix" result="effect1_dropShadow_31_196"/><feBlend in="SourceGraphic" in2="effect1_dropShadow_31_196" result="shape"/></filter></defs></svg>