<svg width="546" height="96" viewBox="0 0 546 96" fill="none" xmlns="http://www.w3.org/2000/svg">
<g style="mix-blend-mode:plus-lighter">
<rect y="19" width="546" height="52" rx="26" fill="#787880" fill-opacity="0.32"/>
<g style="mix-blend-mode:plus-darker">
<path d="M12.9092 43.4463C12.9092 42.5332 13.0807 41.6782 13.4238 40.8813C13.7669 40.0789 14.2428 39.3734 14.8516 38.7646C15.4603 38.1559 16.1631 37.68 16.96 37.3369C17.7624 36.9938 18.6201 36.8223 19.5332 36.8223C20.4463 36.8223 21.3013 36.9938 22.0981 37.3369C22.9006 37.68 23.6061 38.1559 24.2148 38.7646C24.8236 39.3734 25.2995 40.0789 25.6426 40.8813C25.9857 41.6782 26.1572 42.5332 26.1572 43.4463C26.1572 44.2044 26.0355 44.9238 25.792 45.6045C25.554 46.2852 25.222 46.9022 24.7959 47.4556L28.855 51.5396C28.9435 51.6281 29.0099 51.7305 29.0542 51.8467C29.104 51.9629 29.1289 52.0874 29.1289 52.2202C29.1289 52.4028 29.0874 52.5688 29.0044 52.7183C28.9269 52.8677 28.8162 52.9839 28.6724 53.0669C28.5285 53.1554 28.3625 53.1997 28.1743 53.1997C28.0415 53.1997 27.9142 53.1748 27.7925 53.125C27.6763 53.0807 27.5684 53.0116 27.4688 52.9175L23.3848 48.8252C22.8424 49.2126 22.2448 49.5169 21.5918 49.7383C20.9388 49.9596 20.2526 50.0703 19.5332 50.0703C18.6201 50.0703 17.7624 49.8988 16.96 49.5557C16.1631 49.2126 15.4603 48.7367 14.8516 48.1279C14.2428 47.5192 13.7669 46.8164 13.4238 46.0195C13.0807 45.2171 12.9092 44.3594 12.9092 43.4463ZM14.3286 43.4463C14.3286 44.1657 14.4614 44.8408 14.7271 45.4717C14.9982 46.097 15.3717 46.6476 15.8477 47.1235C16.3291 47.5994 16.8825 47.973 17.5078 48.2441C18.1387 48.5153 18.8138 48.6509 19.5332 48.6509C20.2526 48.6509 20.925 48.5153 21.5503 48.2441C22.1812 47.973 22.7345 47.5994 23.2104 47.1235C23.6864 46.6476 24.0599 46.097 24.3311 45.4717C24.6022 44.8408 24.7378 44.1657 24.7378 43.4463C24.7378 42.7269 24.6022 42.0545 24.3311 41.4292C24.0599 40.7983 23.6864 40.245 23.2104 39.769C22.7345 39.2876 22.1812 38.9141 21.5503 38.6484C20.925 38.3773 20.2526 38.2417 19.5332 38.2417C18.8138 38.2417 18.1387 38.3773 17.5078 38.6484C16.8825 38.9141 16.3291 39.2876 15.8477 39.769C15.3717 40.245 14.9982 40.7983 14.7271 41.4292C14.4614 42.0545 14.3286 42.7269 14.3286 43.4463Z" fill="#999999"/>
</g>
<path style="mix-blend-mode:plus-darker" d="M41.5996 51V38.3174H43.1377L50.4502 48.8115L49.3604 48.1963H50.1602V38.3174H51.7246V51H50.1865L42.874 40.541L43.9639 41.1562H43.1641V51H41.5996ZM57.2345 51.167C56.6368 51.167 56.0977 51.0527 55.6173 50.8242C55.1427 50.5957 54.7677 50.2705 54.4923 49.8486C54.2169 49.4268 54.0792 48.9287 54.0792 48.3545V48.3369C54.0792 47.7803 54.2139 47.3027 54.4835 46.9043C54.753 46.5 55.1427 46.1836 55.6524 45.9551C56.168 45.7266 56.7921 45.5918 57.5245 45.5508L61.005 45.3398V46.5615L57.7091 46.7725C56.9942 46.8135 56.4698 46.9629 56.1358 47.2207C55.8077 47.4785 55.6436 47.8389 55.6436 48.3018V48.3193C55.6436 48.7998 55.8223 49.1748 56.1798 49.4443C56.543 49.708 57.0001 49.8398 57.5509 49.8398C58.0723 49.8398 58.5352 49.7373 58.9395 49.5322C59.3438 49.3213 59.6602 49.0371 59.8888 48.6797C60.1231 48.3223 60.2403 47.918 60.2403 47.4668V44.5312C60.2403 43.9453 60.0616 43.5 59.7042 43.1953C59.3526 42.8848 58.8223 42.7295 58.1134 42.7295C57.545 42.7295 57.0792 42.832 56.7159 43.0371C56.3526 43.2363 56.1095 43.5234 55.9864 43.8984L55.9776 43.9248H54.4571L54.4659 43.8721C54.5421 43.374 54.7442 42.9375 55.0723 42.5625C55.4063 42.1875 55.837 41.8975 56.3643 41.6924C56.8917 41.4814 57.4923 41.376 58.1661 41.376C58.9395 41.376 59.5929 41.502 60.1261 41.7539C60.6593 42.0059 61.0665 42.3662 61.3477 42.835C61.629 43.3037 61.7696 43.8662 61.7696 44.5225V51H60.2403V49.6025H60.0997C59.9005 49.9365 59.6573 50.2207 59.3702 50.4551C59.0889 50.6895 58.7696 50.8682 58.4122 50.9912C58.0548 51.1084 57.6622 51.167 57.2345 51.167ZM67.798 51.0791C66.8312 51.0791 66.1281 50.8828 65.6886 50.4902C65.255 50.0918 65.0382 49.4443 65.0382 48.5479V42.8086H63.5529V41.543H65.0382V39.0908H66.6203V41.543H68.6769V42.8086H66.6203V48.1787C66.6203 48.7295 66.7257 49.125 66.9367 49.3652C67.1476 49.6055 67.4963 49.7256 67.9826 49.7256C68.1173 49.7256 68.2316 49.7227 68.3254 49.7168C68.425 49.7109 68.5421 49.7021 68.6769 49.6904V50.9912C68.5363 51.0146 68.3927 51.0352 68.2463 51.0527C68.0998 51.0703 67.9504 51.0791 67.798 51.0791ZM70.8909 51V41.543H72.4202V51H70.8909ZM71.6643 39.7236C71.3772 39.7236 71.1311 39.6211 70.926 39.416C70.7209 39.2051 70.6184 38.959 70.6184 38.6777C70.6184 38.3848 70.7209 38.1357 70.926 37.9307C71.1311 37.7256 71.3772 37.623 71.6643 37.623C71.9573 37.623 72.2063 37.7256 72.4114 37.9307C72.6164 38.1357 72.719 38.3848 72.719 38.6777C72.719 38.959 72.6164 39.2051 72.4114 39.416C72.2063 39.6211 71.9573 39.7236 71.6643 39.7236ZM81.7884 54.1641V49.5762H81.6478C81.4779 49.9102 81.2464 50.1973 80.9534 50.4375C80.6605 50.6719 80.3206 50.8535 79.9339 50.9824C79.553 51.1055 79.137 51.167 78.6859 51.167C77.889 51.167 77.1917 50.9648 76.5941 50.5605C75.9964 50.1562 75.5335 49.5879 75.2054 48.8555C74.8773 48.123 74.7132 47.2646 74.7132 46.2803V46.2627C74.7132 45.2725 74.8773 44.4141 75.2054 43.6875C75.5335 42.9551 75.9964 42.3867 76.5941 41.9824C77.1917 41.5781 77.8919 41.376 78.6946 41.376C79.1224 41.376 79.5238 41.4463 79.8988 41.5869C80.2738 41.7275 80.6136 41.9297 80.9183 42.1934C81.2288 42.4512 81.4837 42.7617 81.6829 43.125H81.7884V41.543H83.3177V54.1641H81.7884ZM79.0462 49.8135C79.6146 49.8135 80.1038 49.6699 80.514 49.3828C80.93 49.0898 81.2523 48.6797 81.4808 48.1523C81.7093 47.6191 81.8236 46.9951 81.8236 46.2803V46.2627C81.8236 45.5361 81.7093 44.9092 81.4808 44.3818C81.2523 43.8545 80.93 43.4473 80.514 43.1602C80.1038 42.873 79.6116 42.7295 79.0374 42.7295C78.4691 42.7295 77.9769 42.873 77.5609 43.1602C77.1448 43.4414 76.8255 43.8457 76.6029 44.373C76.3861 44.8945 76.2777 45.5244 76.2777 46.2627V46.2803C76.2777 47.0068 76.389 47.6367 76.6116 48.1699C76.8343 48.6973 77.1507 49.1045 77.5609 49.3916C77.9769 49.6729 78.472 49.8135 79.0462 49.8135ZM89.1967 51.167C88.4818 51.167 87.8812 51.0322 87.3949 50.7627C86.9086 50.4873 86.5424 50.0889 86.2963 49.5674C86.0561 49.04 85.9359 48.4072 85.9359 47.6689V41.543H87.4652V47.2998C87.4652 48.1436 87.6293 48.7734 87.9574 49.1895C88.2914 49.6055 88.8363 49.8135 89.5922 49.8135C90.0023 49.8135 90.3656 49.752 90.682 49.6289C91.0043 49.5059 91.2738 49.3301 91.4906 49.1016C91.7074 48.8672 91.8686 48.5859 91.974 48.2578C92.0854 47.9238 92.141 47.5518 92.141 47.1416V41.543H93.6703V51H92.141V49.5938H92.0092C91.851 49.9219 91.64 50.2061 91.3764 50.4463C91.1127 50.6807 90.7992 50.8594 90.4359 50.9824C90.0727 51.1055 89.6596 51.167 89.1967 51.167ZM100.261 51.167C99.3589 51.167 98.5854 50.9678 97.9409 50.5693C97.2964 50.1709 96.7983 49.6084 96.4468 48.8818C96.1011 48.1553 95.9282 47.2969 95.9282 46.3066V46.2979C95.9282 45.3193 96.1011 44.4609 96.4468 43.7227C96.7983 42.9844 97.2905 42.4102 97.9233 42C98.562 41.584 99.3091 41.376 100.165 41.376C101.026 41.376 101.764 41.5752 102.379 41.9736C103 42.3662 103.475 42.9199 103.803 43.6348C104.137 44.3438 104.304 45.1699 104.304 46.1133V46.7109H96.7192V45.4893H103.522L102.766 46.6055V45.999C102.766 45.2549 102.655 44.6426 102.432 44.1621C102.209 43.6816 101.902 43.3242 101.509 43.0898C101.117 42.8555 100.666 42.7383 100.156 42.7383C99.646 42.7383 99.1919 42.8613 98.7934 43.1074C98.395 43.3535 98.0786 43.7197 97.8442 44.2061C97.6098 44.6924 97.4927 45.29 97.4927 45.999V46.6055C97.4927 47.2793 97.6069 47.8535 97.8354 48.3281C98.0639 48.8027 98.3862 49.1689 98.8022 49.4268C99.2241 49.6787 99.7221 49.8047 100.296 49.8047C100.724 49.8047 101.096 49.7461 101.413 49.6289C101.729 49.5117 101.99 49.3623 102.195 49.1807C102.4 48.999 102.543 48.8115 102.625 48.6182L102.661 48.5391H104.19L104.172 48.6094C104.09 48.9375 103.944 49.2539 103.733 49.5586C103.528 49.8574 103.258 50.1299 102.924 50.376C102.596 50.6162 102.209 50.8096 101.764 50.9561C101.319 51.0967 100.818 51.167 100.261 51.167ZM111.694 51V38.3174H113.276V51H111.694ZM120.904 51.167C120.465 51.167 120.057 51.0996 119.682 50.9648C119.307 50.8301 118.973 50.6396 118.68 50.3936C118.387 50.1416 118.144 49.8398 117.951 49.4883H117.819V51H116.29V37.79H117.819V43.0371H117.951C118.127 42.6973 118.361 42.4043 118.654 42.1582C118.953 41.9121 119.293 41.7217 119.674 41.5869C120.06 41.4463 120.47 41.376 120.904 41.376C121.707 41.376 122.404 41.5781 122.996 41.9824C123.593 42.3809 124.053 42.9463 124.376 43.6787C124.704 44.4111 124.868 45.2725 124.868 46.2627V46.2803C124.868 47.2646 124.704 48.123 124.376 48.8555C124.053 49.5879 123.593 50.1562 122.996 50.5605C122.404 50.9648 121.707 51.167 120.904 51.167ZM120.552 49.8135C121.133 49.8135 121.628 49.6729 122.038 49.3916C122.448 49.1045 122.761 48.6973 122.978 48.1699C123.195 47.6426 123.303 47.0127 123.303 46.2803V46.2627C123.303 45.5244 123.195 44.8945 122.978 44.373C122.761 43.8457 122.448 43.4414 122.038 43.1602C121.628 42.873 121.133 42.7295 120.552 42.7295C119.984 42.7295 119.492 42.873 119.076 43.1602C118.66 43.4473 118.341 43.8545 118.118 44.3818C117.895 44.9033 117.784 45.5303 117.784 46.2627V46.2803C117.784 47.001 117.895 47.6279 118.118 48.1611C118.341 48.6885 118.66 49.0957 119.076 49.3828C119.492 49.6699 119.984 49.8135 120.552 49.8135ZM127.126 51V41.543H128.655V42.9492H128.787C128.969 42.4512 129.273 42.0645 129.701 41.7891C130.135 41.5137 130.668 41.376 131.301 41.376C131.447 41.376 131.591 41.3848 131.731 41.4023C131.878 41.4141 131.986 41.4258 132.056 41.4375V42.9229C131.904 42.8936 131.752 42.873 131.599 42.8613C131.453 42.8438 131.295 42.835 131.125 42.835C130.644 42.835 130.217 42.9316 129.842 43.125C129.472 43.3125 129.182 43.5791 128.971 43.9248C128.761 44.2705 128.655 44.6748 128.655 45.1377V51H127.126ZM136.45 51.167C135.852 51.167 135.313 51.0527 134.833 50.8242C134.358 50.5957 133.983 50.2705 133.708 49.8486C133.433 49.4268 133.295 48.9287 133.295 48.3545V48.3369C133.295 47.7803 133.43 47.3027 133.699 46.9043C133.969 46.5 134.358 46.1836 134.868 45.9551C135.384 45.7266 136.008 45.5918 136.74 45.5508L140.221 45.3398V46.5615L136.925 46.7725C136.21 46.8135 135.685 46.9629 135.351 47.2207C135.023 47.4785 134.859 47.8389 134.859 48.3018V48.3193C134.859 48.7998 135.038 49.1748 135.395 49.4443C135.759 49.708 136.216 49.8398 136.766 49.8398C137.288 49.8398 137.751 49.7373 138.155 49.5322C138.559 49.3213 138.876 49.0371 139.104 48.6797C139.339 48.3223 139.456 47.918 139.456 47.4668V44.5312C139.456 43.9453 139.277 43.5 138.92 43.1953C138.568 42.8848 138.038 42.7295 137.329 42.7295C136.761 42.7295 136.295 42.832 135.932 43.0371C135.568 43.2363 135.325 43.5234 135.202 43.8984L135.193 43.9248H133.673L133.682 43.8721C133.758 43.374 133.96 42.9375 134.288 42.5625C134.622 42.1875 135.053 41.8975 135.58 41.6924C136.107 41.4814 136.708 41.376 137.382 41.376C138.155 41.376 138.808 41.502 139.342 41.7539C139.875 42.0059 140.282 42.3662 140.563 42.835C140.845 43.3037 140.985 43.8662 140.985 44.5225V51H139.456V49.6025H139.315C139.116 49.9365 138.873 50.2207 138.586 50.4551C138.305 50.6895 137.985 50.8682 137.628 50.9912C137.27 51.1084 136.878 51.167 136.45 51.167ZM143.665 51V41.543H145.194V42.9492H145.326C145.508 42.4512 145.812 42.0645 146.24 41.7891C146.674 41.5137 147.207 41.376 147.84 41.376C147.986 41.376 148.13 41.3848 148.27 41.4023C148.417 41.4141 148.525 41.4258 148.596 41.4375V42.9229C148.443 42.8936 148.291 42.873 148.139 42.8613C147.992 42.8438 147.834 42.835 147.664 42.835C147.184 42.835 146.756 42.9316 146.381 43.125C146.012 43.3125 145.722 43.5791 145.511 43.9248C145.3 44.2705 145.194 44.6748 145.194 45.1377V51H143.665ZM154.5 51L159.176 38.3174H160.389V40.3564H159.897L156.161 51H154.5ZM156.618 47.3701L157.11 46.0254H162.841L163.333 47.3701H156.618ZM163.755 51L160.028 40.3564V38.3174H160.74L165.416 51H163.755ZM167.419 51V37.79H168.948V51H167.419ZM174.37 51.167C173.773 51.167 173.234 51.0527 172.753 50.8242C172.279 50.5957 171.904 50.2705 171.628 49.8486C171.353 49.4268 171.215 48.9287 171.215 48.3545V48.3369C171.215 47.7803 171.35 47.3027 171.619 46.9043C171.889 46.5 172.279 46.1836 172.788 45.9551C173.304 45.7266 173.928 45.5918 174.66 45.5508L178.141 45.3398V46.5615L174.845 46.7725C174.13 46.8135 173.606 46.9629 173.272 47.2207C172.944 47.4785 172.78 47.8389 172.78 48.3018V48.3193C172.78 48.7998 172.958 49.1748 173.316 49.4443C173.679 49.708 174.136 49.8398 174.687 49.8398C175.208 49.8398 175.671 49.7373 176.075 49.5322C176.48 49.3213 176.796 49.0371 177.025 48.6797C177.259 48.3223 177.376 47.918 177.376 47.4668V44.5312C177.376 43.9453 177.198 43.5 176.84 43.1953C176.489 42.8848 175.958 42.7295 175.249 42.7295C174.681 42.7295 174.215 42.832 173.852 43.0371C173.489 43.2363 173.245 43.5234 173.122 43.8984L173.114 43.9248H171.593L171.602 43.8721C171.678 43.374 171.88 42.9375 172.208 42.5625C172.542 42.1875 172.973 41.8975 173.5 41.6924C174.028 41.4814 174.628 41.376 175.302 41.376C176.075 41.376 176.729 41.502 177.262 41.7539C177.795 42.0059 178.202 42.3662 178.484 42.835C178.765 43.3037 178.906 43.8662 178.906 44.5225V51H177.376V49.6025H177.236C177.036 49.9365 176.793 50.2207 176.506 50.4551C176.225 50.6895 175.906 50.8682 175.548 50.9912C175.191 51.1084 174.798 51.167 174.37 51.167ZM181.585 51V41.543H183.115V42.9756H183.246C183.457 42.4717 183.78 42.0791 184.213 41.7979C184.653 41.5166 185.183 41.376 185.804 41.376C186.232 41.376 186.616 41.4463 186.955 41.5869C187.295 41.7275 187.588 41.9238 187.834 42.1758C188.08 42.4219 188.277 42.709 188.423 43.0371H188.555C188.725 42.7031 188.953 42.4131 189.241 42.167C189.528 41.915 189.859 41.7217 190.234 41.5869C190.615 41.4463 191.022 41.376 191.455 41.376C192.1 41.376 192.645 41.4961 193.09 41.7363C193.541 41.9766 193.884 42.3281 194.119 42.791C194.353 43.248 194.47 43.8047 194.47 44.4609V51H192.941V44.8125C192.941 44.3496 192.868 43.9658 192.721 43.6611C192.58 43.3506 192.364 43.1191 192.071 42.9668C191.778 42.8086 191.409 42.7295 190.963 42.7295C190.524 42.7295 190.14 42.8291 189.812 43.0283C189.49 43.2217 189.238 43.4854 189.056 43.8193C188.874 44.1475 188.784 44.5137 188.784 44.918V51H187.254V44.584C187.254 44.209 187.172 43.8838 187.008 43.6084C186.85 43.3271 186.621 43.1104 186.323 42.958C186.03 42.8057 185.684 42.7295 185.286 42.7295C184.875 42.7295 184.506 42.8379 184.178 43.0547C183.85 43.2656 183.589 43.5557 183.396 43.9248C183.208 44.2881 183.115 44.6924 183.115 45.1377V51H181.585Z" fill="#CCCCCC"/>
<g style="mix-blend-mode:plus-darker">
<path d="M520.523 44.3096V42.6245C520.523 42.453 520.584 42.3063 520.706 42.1846C520.828 42.0628 520.974 42.002 521.146 42.002C521.323 42.002 521.472 42.0628 521.594 42.1846C521.716 42.3063 521.777 42.453 521.777 42.6245V44.2598C521.777 45.2005 521.971 46.0251 522.358 46.7334C522.745 47.4417 523.29 47.9924 523.993 48.3853C524.696 48.7726 525.521 48.9663 526.467 48.9663C527.413 48.9663 528.235 48.7726 528.932 48.3853C529.635 47.9924 530.18 47.4417 530.567 46.7334C530.955 46.0251 531.148 45.2005 531.148 44.2598V42.6245C531.148 42.453 531.209 42.3063 531.331 42.1846C531.453 42.0628 531.602 42.002 531.779 42.002C531.951 42.002 532.097 42.0628 532.219 42.1846C532.341 42.3063 532.402 42.453 532.402 42.6245V44.3096C532.402 45.3942 532.178 46.3571 531.729 47.1982C531.287 48.0394 530.667 48.7145 529.87 49.2236C529.073 49.7272 528.146 50.0233 527.089 50.1118V52.0459H530.169C530.346 52.0459 530.495 52.1068 530.617 52.2285C530.739 52.3503 530.8 52.4997 530.8 52.6768C530.8 52.8483 530.739 52.995 530.617 53.1167C530.495 53.2384 530.346 53.2993 530.169 53.2993H522.756C522.579 53.2993 522.43 53.2384 522.308 53.1167C522.186 52.995 522.125 52.8483 522.125 52.6768C522.125 52.4997 522.186 52.3503 522.308 52.2285C522.43 52.1068 522.579 52.0459 522.756 52.0459H525.836V50.1118C524.779 50.0233 523.852 49.7272 523.055 49.2236C522.258 48.7145 521.636 48.0394 521.188 47.1982C520.745 46.3571 520.523 45.3942 520.523 44.3096ZM526.467 47.1816C525.913 47.1816 525.429 47.0544 525.014 46.7998C524.599 46.5452 524.275 46.1938 524.043 45.7456C523.811 45.2918 523.694 44.7689 523.694 44.1768V38.6235C523.694 38.0314 523.811 37.5112 524.043 37.063C524.275 36.6092 524.599 36.255 525.014 36.0005C525.429 35.7459 525.913 35.6187 526.467 35.6187C527.015 35.6187 527.496 35.7459 527.911 36.0005C528.332 36.255 528.655 36.6092 528.882 37.063C529.115 37.5112 529.231 38.0314 529.231 38.6235V44.1768C529.231 44.7689 529.115 45.2918 528.882 45.7456C528.655 46.1938 528.332 46.5452 527.911 46.7998C527.496 47.0544 527.015 47.1816 526.467 47.1816Z" fill="#999999"/>
</g>
</g>
<g style="mix-blend-mode:multiply" opacity="0.25">
<rect x="36" y="30" width="167" height="30" rx="1" fill="#0088FF"/>
</g>
<rect x="201" y="30" width="2" height="34" rx="1" fill="#0088FF"/>
<g filter="url(#filter0_d_31_196)">
<circle cx="202" cy="65" r="8" fill="#0088FF"/>
</g>
<rect x="36" y="26" width="2" height="34" rx="1" fill="#0088FF"/>
<g filter="url(#filter1_d_31_196)">
<circle cx="37" cy="25" r="8" fill="#0088FF"/>
</g>
<rect opacity="0.75" x="491" y="43.5" width="3" height="7" rx="1.5" transform="rotate(90 491 43.5)" fill="#999999"/>
<rect opacity="0.87" x="486.16" y="38.2822" width="3" height="7" rx="1.5" transform="rotate(-45 486.16 38.2822)" fill="#999999"/>
<rect opacity="0.51" x="493.5" y="49" width="3" height="7" rx="1.5" fill="#999999"/>
<rect opacity="0.63" x="491.109" y="46.7678" width="3" height="7" rx="1.5" transform="rotate(45 491.109 46.7678)" fill="#999999"/>
<rect opacity="0.39" x="496.77" y="48.8887" width="3" height="7" rx="1.5" transform="rotate(-45 496.77 48.8887)" fill="#999999"/>
<rect opacity="0.27" x="506" y="43.5" width="3" height="7" rx="1.5" transform="rotate(90 506 43.5)" fill="#999999"/>
<rect opacity="0.15" x="501.719" y="36.1611" width="3" height="7" rx="1.5" transform="rotate(45 501.719 36.1611)" fill="#999999"/>
<rect x="493.5" y="34" width="3" height="7" rx="1.5" fill="#999999"/>
<defs>
<filter id="filter0_d_31_196" x="174" y="40" width="56" height="56" filterUnits="userSpaceOnUse" color-interpolation-filters="sRGB">
<feFlood flood-opacity="0" result="BackgroundImageFix"/>
<feColorMatrix in="SourceAlpha" type="matrix" values="0 0 0 0 0 0 0 0 0 0 0 0 0 0 0 0 0 0 127 0" result="hardAlpha"/>
<feMorphology radius="6" operator="dilate" in="SourceAlpha" result="effect1_dropShadow_31_196"/>
<feOffset dy="3"/>
<feGaussianBlur stdDeviation="7"/>
<feComposite in2="hardAlpha" operator="out"/>
<feColorMatrix type="matrix" values="0 0 0 0 0 0 0 0 0 0 0 0 0 0 0 0 0 0 0.12 0"/>
<feBlend mode="normal" in2="BackgroundImageFix" result="effect1_dropShadow_31_196"/>
<feBlend mode="normal" in="SourceGraphic" in2="effect1_dropShadow_31_196" result="shape"/>
</filter>
<filter id="filter1_d_31_196" x="9" y="0" width="56" height="56" filterUnits="userSpaceOnUse" color-interpolation-filters="sRGB">
<feFlood flood-opacity="0" result="BackgroundImageFix"/>
<feColorMatrix in="SourceAlpha" type="matrix" values="0 0 0 0 0 0 0 0 0 0 0 0 0 0 0 0 0 0 127 0" result="hardAlpha"/>
<feMorphology radius="6" operator="dilate" in="SourceAlpha" result="effect1_dropShadow_31_196"/>
<feOffset dy="3"/>
<feGaussianBlur stdDeviation="7"/>
<feComposite in2="hardAlpha" operator="out"/>
<feColorMatrix type="matrix" values="0 0 0 0 0 0 0 0 0 0 0 0 0 0 0 0 0 0 0.12 0"/>
<feBlend mode="normal" in2="BackgroundImageFix" result="effect1_dropShadow_31_196"/>
<feBlend mode="normal" in="SourceGraphic" in2="effect1_dropShadow_31_196" result="shape"/>
</filter>
</defs>
</svg>
