<svg width="18" height="13" viewBox="0 0 18 13" fill="none" xmlns="http://www.w3.org/2000/svg">
<path fill-rule="evenodd" clip-rule="evenodd" d="M9.43641 2.80216C11.9235 2.80226 14.3155 3.72435 16.118 5.37783C16.2538 5.50548 16.4707 5.50387 16.6044 5.37422L17.9019 4.11075C17.9696 4.04499 18.0073 3.95591 18.0068 3.86323C18.0062 3.77055 17.9674 3.68191 17.8989 3.61691C13.1679 -0.757802 5.70418 -0.757802 0.973168 3.61691C0.904636 3.68186 0.865752 3.77047 0.86512 3.86316C0.864488 3.95584 0.902161 4.04494 0.969801 4.11075L2.26767 5.37422C2.40126 5.50407 2.61839 5.50568 2.75404 5.37783C4.55678 3.72424 6.94906 2.80215 9.43641 2.80216ZM9.43306 7.02243C10.7904 7.02235 12.0993 7.53409 13.1054 8.45822C13.2415 8.58937 13.4558 8.58653 13.5885 8.45181L14.8758 7.1325C14.9436 7.0633 14.9812 6.96942 14.9802 6.87187C14.9792 6.77432 14.9397 6.68124 14.8706 6.61345C11.8067 3.7226 7.06199 3.7226 3.99816 6.61345C3.92895 6.68124 3.88947 6.77437 3.88856 6.87195C3.88765 6.96953 3.9254 7.0634 3.99333 7.1325L5.28024 8.45181C5.41289 8.58653 5.62726 8.58937 5.76334 8.45822C6.76879 7.5347 8.07664 7.023 9.43306 7.02243ZM11.9575 9.81599C11.9594 9.92134 11.9223 10.0229 11.855 10.0967L9.67838 12.5514C9.61458 12.6236 9.52758 12.6642 9.43681 12.6642C9.34604 12.6642 9.25905 12.6236 9.19524 12.5514L7.01822 10.0967C6.95096 10.0229 6.91397 9.92125 6.91596 9.8159C6.91796 9.71055 6.95877 9.61079 7.02875 9.54017C8.41885 8.22628 10.4548 8.22628 11.8449 9.54017C11.9148 9.61084 11.9556 9.71064 11.9575 9.81599Z" fill="white"/>
</svg>
